<?xml version="1.0" standalone="no"?><!DOCTYPE svg PUBLIC "-//W3C//DTD SVG 1.1//EN" "http://www.w3.org/Graphics/SVG/1.1/DTD/svg11.dtd"><svg t="1502957633270" class="icon" style="" viewBox="0 0 1024 1024" version="1.1" xmlns="http://www.w3.org/2000/svg" p-id="4110" xmlns:xlink="http://www.w3.org/1999/xlink" width="32" height="32"><defs><style type="text/css"></style></defs><path d="M511.91808 0.12288C229.45792 0.12288 0.49152 229.08928 0.49152 511.5904c0 282.4192 228.9664 511.42656 511.42656 511.42656 282.46016 0 511.42656-228.9664 511.42656-511.42656 0-282.46016-228.9664-511.46752-511.42656-511.46752z m213.4016 637.37856a31.78496 31.78496 0 0 1-21.95456 8.56064 31.78496 31.78496 0 0 1-21.95456-8.56064l-138.6496-130.99008v268.24704c0 15.81056-13.80352 28.672-30.84288 28.672-16.9984 0-30.84288-12.86144-30.84288-28.672v-268.288l-138.6496 131.072a31.66208 31.66208 0 0 1-21.9136 8.51968 31.70304 31.70304 0 0 1-21.99552-8.56064 27.56608 27.56608 0 0 1-8.84736-20.15232c0-7.5776 3.15392-14.7456 8.84736-20.15232l191.488-180.92032a31.66208 31.66208 0 0 1 21.9136-8.56064c8.31488 0 16.09728 3.072 21.95456 8.6016l191.44704 180.87936c5.7344 5.40672 8.88832 12.57472 8.88832 20.15232s-3.15392 14.7456-8.88832 20.15232z m-14.58176-271.7696H313.1392c-18.35008 0-33.25952-13.9264-33.25952-31.04768 0-17.03936 14.90944-30.9248 33.25952-30.9248h397.59872c18.30912 0 33.21856 13.88544 33.21856 30.9248 0 17.12128-14.90944 31.04768-33.21856 31.04768z" p-id="4111" fill="#999999"></path></svg>