<?xml version="1.0" standalone="no"?><!DOCTYPE svg PUBLIC "-//W3C//DTD SVG 1.1//EN" "http://www.w3.org/Graphics/SVG/1.1/DTD/svg11.dtd"><svg t="1508478580639" class="icon" style="" viewBox="0 0 1024 1024" version="1.1" xmlns="http://www.w3.org/2000/svg" p-id="2358" xmlns:xlink="http://www.w3.org/1999/xlink" width="16" height="16"><defs><style type="text/css"></style></defs><path d="M716.8 163.84C645.5296 163.84 577.1264 197.0176 532.48 249.4464 487.8336 197.0176 419.4304 163.84 348.16 163.84 222.0032 163.84 122.88 262.9632 122.88 389.12 122.88 543.9488 262.144 670.1056 473.088 861.7984L532.48 915.456 591.872 861.3888C802.816 670.1056 942.08 543.9488 942.08 389.12 942.08 262.9632 842.9568 163.84 716.8 163.84L716.8 163.84ZM532.48 864.679686 528.384 860.583686C333.4144 684.046086 176.029401 536.688529 176.029401 389.12 176.029401 307.2 242.879811 208.697356 345.849772 208.697356 448.819732 208.697356 490.97479 249.678689 519.22647 284.255687L543.6935 284.255687C572.290613 249.772356 592.542683 208.697356 718.978658 208.697356 845.414633 208.697356 888.342409 307.2 888.342422 389.12 888.342446 563.132592 731.5456 684.046086 536.576 860.583686L532.48 864.679686Z" p-id="2359"></path></svg>